<?xml version="1.0" encoding="utf-8"?>
<!-- Generator: Adobe Illustrator 18.0.0, SVG Export Plug-In . SVG Version: 6.00 Build 0)  -->
<!DOCTYPE svg PUBLIC "-//W3C//DTD SVG 1.1//EN" "http://www.w3.org/Graphics/SVG/1.1/DTD/svg11.dtd">
<svg version="1.1" id="Calque_1" xmlns="http://www.w3.org/2000/svg" xmlns:xlink="http://www.w3.org/1999/xlink" x="0px" y="0px"
	 viewBox="0 0 600 600" enable-background="new 0 0 600 600" xml:space="preserve">
<path fill="#E50034" d="M338,361.8c0,0,222-130,234.9-130.3c25.7-0.6,25.7,27.3,25.7,27.3v236.8c0,19-15.4,34.4-34.3,34.4H33
	c-19,0-34.4-15.4-34.4-34.4V258.8c0,0,1.5-27.2,25.8-27.3c14.4-0.1,234.8,130.3,234.8,130.3S298.7,388.3,338,361.8z"/>
<path fill="#E50034" d="M332.6,319.4c-33.3,18.9-63.6,0-63.6,0S42.4,184.5,22,173.2C1.5,161.8,0,146.6,0,146.6v-42.9
	c0-19,15.4-34.4,34.4-34.4h531.3c19,0,34.3,15.4,34.3,34.4v43.7c0,0,1.5,11.4-19.7,24.2C559.1,184.5,332.6,319.4,332.6,319.4z"/>
</svg>
