<?xml version="1.0" encoding="utf-8"?>
<!-- Generator: Adobe Illustrator 18.0.0, SVG Export Plug-In . SVG Version: 6.00 Build 0)  -->
<!DOCTYPE svg PUBLIC "-//W3C//DTD SVG 1.1//EN" "http://www.w3.org/Graphics/SVG/1.1/DTD/svg11.dtd">
<svg version="1.1" id="Calque_1" xmlns="http://www.w3.org/2000/svg" xmlns:xlink="http://www.w3.org/1999/xlink" x="0px" y="0px"
	 viewBox="0 0 600 600" enable-background="new 0 0 600 600" xml:space="preserve">
<g>
	<g>
		<path fill="#6B6B6B" d="M593,298C593,135.1,460.9,3,298,3S3,135.1,3,298s132.1,295,295,295S593,460.9,593,298z M29.8,298
			C29.8,149.9,149.9,29.8,298,29.8S566.2,149.9,566.2,298S446.1,566.2,298,566.2S29.8,446.1,29.8,298z"/>
		<path fill="#6B6B6B" d="M309.3,468.3V298h56.2l8.9-56.4h-65.1v-28.3c0-14.7,4.8-28.8,26-28.8h42.2v-56.3h-60
			c-50.4,0-64.2,33.2-64.2,79.2v34.1h-34.6V298h34.6v170.3H309.3L309.3,468.3z"/>
	</g>
</g>
</svg>
