<?xml version="1.0" encoding="utf-8"?>
<!-- Generator: Adobe Illustrator 18.0.0, SVG Export Plug-In . SVG Version: 6.00 Build 0)  -->
<!DOCTYPE svg PUBLIC "-//W3C//DTD SVG 1.1//EN" "http://www.w3.org/Graphics/SVG/1.1/DTD/svg11.dtd">
<svg version="1.1" id="Calque_1" xmlns="http://www.w3.org/2000/svg" xmlns:xlink="http://www.w3.org/1999/xlink" x="0px" y="0px"
	 viewBox="0 0 600 600" enable-background="new 0 0 600 600" xml:space="preserve">
<g>
	<path fill="#E50034" d="M288.9,599.9c-185.6,0-288-102.4-288-288v-24c0-185.6,102.4-288,288-288h24c185.6,0,288,102.4,288,288v24
		c0,185.6-102.4,288-288,288H288.9z"/>
</g>
<polygon fill="#FFFFFF" points="312.1,296.2 351.1,242.2 329.2,242.2 302,280.2 274.7,242.2 252.8,242.2 291.8,296.2 251.8,350.2 
	273.8,350.2 302,310.8 330.2,350.2 352.1,350.2 "/>
<path fill="#FFFFFF" d="M176.8,293.5v-18.1c0-11,4.8-14.9,6.8-16.2c5.4-3.5,13.1-5.7,21.5-5.6c8.4,0,20.2,2.3,26.4,10.1
	c0.9,1.1,5.3,8.5,0.7,17.8c-2.9,5.9-13.5,7.7-13.5,7.7C199.9,292.4,176.8,293.5,176.8,293.5 M222.1,302.9
	c14.5-2.5,29.6-12.3,29.6-31.5c0-9.8-5.9-18.7-15.1-24.6c-8.7-5.7-19.9-8.6-31.5-8.6c-11.7,0-22.8,3-31.5,8.6
	c-9.8,6.5-15.1,17.3-15.1,27.2v44.4c0,10,5.8,19.8,15.1,25.8c8.7,5.7,19.8,8.6,31.5,8.6c11.6,0,21.9-2.6,31.5-8.6
	c10.6-6.7,13.6-15.5,15.8-22l-18.7,0.7c0,0-2.2,4.9-7.2,8.1c-5.4,3.5-13.1,5.7-21.5,5.6c-8.4,0-16.7-2.4-21.5-5.7
	c-2.6-1.7-7.2-4.1-6.8-12.7v-11.2C176.8,307.2,196.1,306.4,222.1,302.9"/>
<path fill="#FFFFFF" d="M130,246.8c-8.8-5.7-19.9-8.6-31.5-8.6c-31.9,0-46.6,13.6-46.6,13.6v98.5h18.4v-88.1c10.6-7.6,28.3-7,28.3-7
	c8.4,0,16.1,2.1,21.5,5.6c2,1.3,6.8,5,6.8,15.8v73.7h18.4V274C145,264.1,139.8,253.3,130,246.8"/>
<path fill="#FFFFFF" d="M446.5,246.2H424v-29.5l-15.1,6.4c0,0-3.3,1.5-3.3,5.2v121.8H424v-88h22.6V246.2z"/>
<path fill="#FFFFFF" d="M380,239.3l-15.1,6.4c0,0-3.2,1.5-3.2,5.2v99.2H380V239.3z"/>
<path fill="#FFFFFF" d="M485.5,312.7c0,0,12.5,0.6,41.3-5.3l0,16.6c0,0.6,0.6,7.3-10.2,11.2c-3.8,1.4-9.4,2.4-17.1,2.4
	c-22.2-0.1-32.2-6.3-32.4-6.4c-0.1-0.1-8.9,12.1-8.9,12.1c1.1,0.9,13.9,9.4,41.3,9.4c9,0,17-1.3,22-3.3c11.6-4.4,20.4-11.6,21-26.1
	v-81.1h-15.8v50.7c0,0-17.8,4.9-41,4.9c-4.6,0-13.1-0.9-14.4-7.9c0-0.2,0-43.6,0-43.6h-15.5v43.4
	C456.7,305.3,470.7,312.9,485.5,312.7"/>
</svg>
