<?xml version="1.0" encoding="utf-8"?>
<!-- Generator: Adobe Illustrator 18.0.0, SVG Export Plug-In . SVG Version: 6.00 Build 0)  -->
<!DOCTYPE svg PUBLIC "-//W3C//DTD SVG 1.1//EN" "http://www.w3.org/Graphics/SVG/1.1/DTD/svg11.dtd">
<svg version="1.1" id="Calque_1" xmlns="http://www.w3.org/2000/svg" xmlns:xlink="http://www.w3.org/1999/xlink" x="0px" y="0px"
	 viewBox="0 0 600 600" enable-background="new 0 0 600 600" xml:space="preserve">
<path fill="#E50034" d="M301-1C179.6-1,81.2,97.4,81.2,218.8c0,30.6,6.3,59.8,17.6,86.2c0,0,46.3,149.9,202.2,293.9
	C457,455,503.2,305.1,503.2,305.1c11.3-26.5,17.6-55.6,17.6-86.2C520.8,97.4,422.4-1,301-1z M381.1,321.8c0,5.7-2.1,7.4-8.2,7.4
	h-21.3c-5.8,0-8.2-1.7-8.2-7.4V203.6c0-34.4-11.9-48.4-43.1-48.4c-27,0-42.3,10.3-42.3,42.7v123.9c0,5.7-2,7.4-8.2,7.4h-21.3
	c-5.7,0-8.2-1.7-8.2-7.4V134.3c0-4.9,2-6.1,6.6-6.1h14.4c4.9,0,7,1.2,7.8,6.1l2,13.2h0.8c11.5-13.9,30.4-23,58.3-23
	c46.8,0,71,21.7,71,80.8v116.5H381.1z"/>
</svg>
