<?xml version="1.0" encoding="utf-8"?>
<!-- Generator: Adobe Illustrator 18.0.0, SVG Export Plug-In . SVG Version: 6.00 Build 0)  -->
<!DOCTYPE svg PUBLIC "-//W3C//DTD SVG 1.1//EN" "http://www.w3.org/Graphics/SVG/1.1/DTD/svg11.dtd">
<svg version="1.1" id="Calque_1" xmlns="http://www.w3.org/2000/svg" xmlns:xlink="http://www.w3.org/1999/xlink" x="0px" y="0px"
	 viewBox="0 0 600 600" enable-background="new 0 0 600 600" xml:space="preserve">
<path fill="#E50034" d="M2.7,112.9C14.6,43.5,66.6,7.8,100.3,2.7s42.9,5.1,42.9,5.1l69.4,113.3c0,0,21.4,23.5,0,41.8
	c-21.4,18.4-64.3,58.2-64.3,58.2s-7.2,13.3,3,33.7c0,0,41.9,105.5,195,195.2c19.7,11.5,33.7,3,33.7,3s39.7-42.9,58.1-64.4
	c18.3-21.5,41.8-0.1,41.8-0.1l113.4,69.2c0,0,10.2,9.2,5.2,42.9s-40.7,85.8-110.1,97.7c0,0-174.9,17.9-347.4-167.9
	C-31.4,244.6,2.7,112.9,2.7,112.9z"/>
</svg>
